<svg height="320" viewBox="0 0 400 320" width="400" xmlns="http://www.w3.org/2000/svg"><g fill="none" fill-rule="evenodd" opacity=".5" transform="translate(-13 -21)"><path d="m52.4393398 142.56066c-.5857864-.585786-.5857864-1.535534 0-2.12132.5857865-.585787 1.5355339-.585787 2.1213204 0l80.0062498 80.00625c.585786.585786.585786 1.535533 0 2.12132-.585787.585786-1.535534.585786-2.12132 0z" fill="#ad5300" fill-rule="nonzero"/><path d="m173.06066 302.06066c-.585786.585787-1.535534.585787-2.12132 0-.585787-.585786-.585787-1.535534 0-2.12132l40-40c.585786-.585787 1.535534-.585787 2.12132 0l38.93934 38.93934 38.93934-38.93934c.580802-.580802 1.520706-.586464 2.108464-.012702l41.996094 40.996093c.592801.578686.604244 1.528365.025558 2.121167-.578686.592801-1.528364.604244-2.121166.025558l-40.935587-39.960839-38.952043 38.952043c-.585786.585787-1.535534.585787-2.12132 0l-38.93934-38.93934z" fill="#c7efb0" fill-rule="nonzero" transform="matrix(-1 0 0 -1 505.996094 562.996094)"/><path d="m315.396561 214.04479c-.791819.770128-2.058026.752545-2.828155-.039273-.770128-.791818-.752546-2.058026.039273-2.828154l16.049382-15.609756c.776314-.755049 2.012569-.755049 2.788882 0l14.654942 14.253511 14.654942-14.253511c.769618-.748538 1.992944-.755902 2.771519-.016685l16.850285 15.998475c.801032.76054.833859 2.026444.07332 2.827477-.76054.801033-2.026444.833859-2.827477.07332l-15.456508-14.675157-14.67164 14.269753c-.776314.755048-2.012568.755048-2.788882 0l-14.654942-14.253512z" fill="#c7efb0" fill-rule="nonzero" transform="matrix(.8660254 -.5 .5 .8660254 -56.077903 200.715536)"/><path d="m50.9382667 48.6536575-17.4888527 17.4888526-1.9445436-2.298097 18.3727361-18.3727361c.5857864-.5857865 1.5355339-.5857865 2.1213204 0l38.9393398 38.9393398 38.9393403-38.9393398c.580801-.5808019 1.520706-.5864643 2.108464-.0127024l41.996093 40.9960938c.592802.5786861.604245 1.5283646.025559 2.1211663-.578686.5928018-1.528365.6042448-2.121166.0255587l-40.935587-39.9608392-38.9520431 38.9520431c-.5857865.5857864-1.535534.5857864-2.1213204 0z" fill="#cdfcb8" fill-rule="nonzero" transform="matrix(-.70710678 .70710678 -.70710678 -.70710678 223.177769 41.617509)"/><g fill="#a0df97"><g><circle cx="176" cy="104" r="3"/><circle cx="186" cy="104" r="3"/><circle cx="196" cy="104" r="3"/><circle cx="206" cy="104" r="3"/><circle cx="176" cy="114" r="3"/><circle cx="186" cy="114" r="3"/><circle cx="196" cy="114" r="3"/><circle cx="206" cy="114" r="3"/><circle cx="176" cy="124" r="3"/><circle cx="186" cy="124" r="3"/><circle cx="196" cy="124" r="3"/><circle cx="206" cy="124" r="3"/><circle cx="176" cy="134" r="3"/><circle cx="186" cy="134" r="3"/><circle cx="196" cy="134" r="3"/><circle cx="206" cy="134" r="3"/></g><g><circle cx="176" cy="144" r="3"/><circle cx="186" cy="144" r="3"/><circle cx="196" cy="144" r="3"/><circle cx="206" cy="144" r="3"/><circle cx="176" cy="154" r="3"/><circle cx="186" cy="154" r="3"/><circle cx="196" cy="154" r="3"/><circle cx="206" cy="154" r="3"/><circle cx="176" cy="164" r="3"/><circle cx="186" cy="164" r="3"/><circle cx="196" cy="164" r="3"/><circle cx="206" cy="164" r="3"/><circle cx="176" cy="174" r="3"/><circle cx="186" cy="174" r="3"/><circle cx="196" cy="174" r="3"/><circle cx="206" cy="174" r="3"/></g><g><circle cx="216" cy="144" r="3"/><circle cx="226" cy="144" r="3"/><circle cx="236" cy="144" r="3"/><circle cx="246" cy="144" r="3"/><circle cx="216" cy="154" r="3"/><circle cx="226" cy="154" r="3"/><circle cx="236" cy="154" r="3"/><circle cx="246" cy="154" r="3"/><circle cx="216" cy="164" r="3"/><circle cx="226" cy="164" r="3"/><circle cx="236" cy="164" r="3"/><circle cx="246" cy="164" r="3"/><circle cx="216" cy="174" r="3"/><circle cx="226" cy="174" r="3"/><circle cx="236" cy="174" r="3"/><circle cx="246" cy="174" r="3"/></g><g transform="matrix(.70710678 .70710678 -.70710678 .70710678 412.849242 272.694914)"><circle cx="3.707107" cy="3.694913" r="3"/><circle cx="3.707107" cy="13.694914" r="3"/><circle cx="13.707107" cy="13.694914" r="3"/><circle cx="3" cy="24" r="3"/><circle cx="13" cy="24" r="3"/><circle cx="23" cy="24" r="3"/><circle cx="3" cy="34" r="3"/><circle cx="13" cy="34" r="3"/><circle cx="23" cy="34" r="3"/><circle cx="33" cy="34" r="3"/><circle cx="3" cy="44" r="3"/><circle cx="13" cy="44" r="3"/><circle cx="23" cy="44" r="3"/><circle cx="33" cy="44" r="3"/><circle cx="3" cy="54" r="3"/><circle cx="13" cy="54" r="3"/><circle cx="23" cy="54" r="3"/><circle cx="33" cy="54" r="3"/></g><g transform="matrix(.70710678 .70710678 -.70710678 .70710678 27 259.544156)"><circle cx="3" cy="3" r="3"/><circle cx="13" cy="3" r="3"/><circle cx="23" cy="3" r="3"/><circle cx="33" cy="3" r="3"/><circle cx="3" cy="13" r="3"/><circle cx="13" cy="13" r="3"/><circle cx="23" cy="13" r="3"/><circle cx="33" cy="13" r="3"/><circle cx="3" cy="23" r="3"/><circle cx="13" cy="23" r="3"/><circle cx="23" cy="23" r="3"/><circle cx="33" cy="23" r="3"/><circle cx="13" cy="33" r="3"/><circle cx="23" cy="33" r="3"/><circle cx="33" cy="33" r="3"/></g><g transform="matrix(.70710678 .70710678 -.70710678 .70710678 12.142136 301.686292)"><circle cx="3" cy="3" r="3"/><circle cx="13" cy="3" r="3"/><circle cx="13" cy="13" r="3"/></g></g><path d="m162.119891 327.253166-13.642135 13.642136c-.585787.585786-1.535534.585786-2.121321 0-.585786-.585787-.585786-1.535534 0-2.121321l13.553184-13.731088z" fill="#cdfcb8" fill-rule="nonzero" transform="matrix(-.70710678 .70710678 -.70710678 -.70710678 498.52605 459.881283)"/><path d="m313 64-17 34h34zm2.683282-1.3416408 17 34c.997351 1.9947033-.453136 4.3416408-2.683282 4.3416408h-34c-2.230146 0-3.680633-2.3469375-2.683282-4.3416408l17-34c1.105573-2.2111456 4.260991-2.2111456 5.366564 0z" fill="#49bf65" fill-rule="nonzero"/><path d="m33 184.996129-17 34h34zm2.6832816-1.34164 17 34c.9973516 1.994703-.4531355 4.34164-2.6832816 4.34164h-34c-2.2301461 0-3.6806332-2.346937-2.6832816-4.34164l17-34c1.1055728-2.211146 4.2609904-2.211146 5.3665632 0z" fill="#49bf65" fill-rule="nonzero" transform="matrix(0 -1 1 0 -168.996129 234.996129)"/><path d="m256.338773 214.546036 4.794873 9.589746c.664901 1.329802-.302091 2.894427-1.788855 2.894427h-9.589746c-1.486764 0-2.453755-1.564625-1.788854-2.894427l4.794873-9.589746c.737048-1.474098 2.84066-1.474098 3.577709 0z" fill="#009f33" fill-rule="nonzero" transform="matrix(.8660254 .5 -.5 .8660254 144.22089 -97.769019)"/><circle cx="133.5" cy="141.5" fill="#ad5300" r="4.5"/><g fill="#933503" fill-rule="nonzero" transform="matrix(.46174861 -.88701083 .88701083 .46174861 217.651241 57.131674)"><path d="m20.107902.54815813c.2495453-.49269215.8512477-.68980155 1.3439399-.44025618.4926921.24954538.6898015.85124777.4402561 1.34393992l-19.49999995 38.50000003c-.24954538.4926921-.85124777.6898015-1.34393992.4402561-.49269214-.2495453-.68980155-.8512477-.44025618-1.3439399z"/><path d="m22.107902 4.54815813c.2495453-.49269215.8512477-.68980155 1.3439399-.44025618.4926921.24954538.6898015.85124777.4402561 1.34393992l-17.42302239 34.39930073c-.24954537.4926921-.85124777.6898015-1.34393991.4402562-.49269215-.2495454-.68980156-.8512478-.44025618-1.34394z"/><path d="m24.107902 8.54815813c.2495453-.49269215.8512477-.68980155 1.3439399-.44025618.4926921.24954538.6898015.85124777.4402561 1.34393992l-15.4349182 30.47406933c-.2495453.4926921-.85124774.6898015-1.34393988.4402561-.49269215-.2495453-.68980156-.8512477-.44025618-1.3439399z"/><path d="m26.107902 12.5481581c.2495453-.4926921.8512477-.6898015 1.3439399-.4402561.4926921.2495453.6898015.8512477.4402561 1.3439399l-13.3564456 26.3704182c-.2495453.4926922-.8512477.6898016-1.3439399.4402562-.4926921-.2495453-.6898015-.8512477-.4402562-1.3439399z"/><path d="m28.107902 16.5481581c.2495453-.4926921.8512477-.6898015 1.3439399-.4402561.4926921.2495453.6898015.8512477.4402561 1.3439399l-11.3683414 22.4451868c-.2495453.4926922-.8512477.6898016-1.3439399.4402562-.4926921-.2495454-.6898015-.8512477-.4402562-1.3439399z"/><path d="m30.107902 20.5481581c.2495453-.4926921.8512477-.6898015 1.3439399-.4402561.4926921.2495453.6898015.8512477.4402561 1.3439399l-9.2898688 18.3415358c-.2495453.4926922-.8512477.6898016-1.3439399.4402562-.4926921-.2495454-.6898015-.8512478-.4402562-1.3439399z"/><path d="m32.107902 24.5481581c.2495453-.4926921.8512477-.6898015 1.3439399-.4402561.4926921.2495453.6898015.8512477.4402561 1.3439399l-7.3017645 14.4163044c-.2495454.4926922-.8512478.6898016-1.34394.4402562-.4926921-.2495454-.6898015-.8512478-.4402561-1.3439399z"/><path d="m34.107902 28.5481581c.2495453-.4926921.8512477-.6898015 1.3439399-.4402561.4926921.2495453.6898015.8512477.4402561 1.3439399l-5.2232919 10.3126534c-.2495454.4926921-.8512478.6898015-1.34394.4402562-.4926921-.2495454-.6898015-.8512478-.4402561-1.3439399z"/><path d="m36.107902 32.5481581c.2495453-.4926921.8512477-.6898015 1.3439399-.4402561.4926921.2495453.6898015.8512477.4402561 1.3439399l-3.2351877 6.387422c-.2495454.4926921-.8512478.6898015-1.3439399.4402562-.4926922-.2495454-.6898016-.8512478-.4402562-1.3439399z"/><path d="m38.107902 36.5481581c.2495453-.4926921.8512477-.6898015 1.3439399-.4402561.4926921.2495453.6898015.8512477.4402561 1.3439399l-1.1567151 2.283771c-.2495454.4926921-.8512478.6898015-1.34394.4402561-.4926921-.2495453-.6898015-.8512477-.4402561-1.3439399z"/></g><path d="m373.091623 19.908377 1.15183 1.2182012 37.443785 37.4393399c.585787.5857864.585787 1.5355339 0 2.1213203-.585786.5857865-1.535533.5857865-2.12132 0l-36.454687-36.4546874z" fill="#933503" fill-rule="nonzero" transform="matrix(0 1 -1 0 433.126579 -352.091623)"/><path d="m.43933983 2.56066017c-.58578644-.58578644-.58578644-1.5355339 0-2.12132034s1.5355339-.58578644 2.12132034 0l1.125 1.125-1.12132034 3.12132034z" fill="#933503" fill-rule="nonzero" transform="matrix(0 1 -1 0 413 339.03183)"/></g></svg>