<?xml version="1.0" standalone="no"?>
<!DOCTYPE svg PUBLIC "-//W3C//DTD SVG 20010904//EN"
 "http://www.w3.org/TR/2001/REC-SVG-20010904/DTD/svg10.dtd">
<svg version="1.0" xmlns="http://www.w3.org/2000/svg"
 width="700.000000pt" height="700.000000pt" viewBox="0 0 700.000000 700.000000"
 preserveAspectRatio="xMidYMid meet">
<metadata>
Created by potrace 1.11, written by Peter Selinger 2001-2013
</metadata>
<g transform="translate(0.000000,700.000000) scale(0.100000,-0.100000)"
fill="#000000" stroke="none">
<path d="M675 5428 c-5 -15 -535 -3797 -535 -3815 0 -10 255 -13 1240 -13
l1240 0 5 23 c2 12 32 216 65 452 34 237 63 445 67 463 l5 32 -706 0 c-388 0
-706 1 -706 3 0 7 390 2792 396 2830 l6 37 -536 0 c-421 0 -538 -3 -541 -12z"/>
<path d="M3526 5408 c-3 -18 -122 -870 -266 -1893 -143 -1023 -263 -1872 -266
-1888 l-6 -27 539 0 539 0 68 488 69 489 142 153 c78 84 146 151 151 150 5 -1
40 -58 77 -128 38 -70 114 -210 169 -312 145 -268 251 -423 378 -551 191 -192
384 -281 670 -308 124 -12 430 -26 430 -19 0 2 32 224 70 493 39 269 70 494
70 500 0 8 -27 14 -73 18 -229 17 -387 108 -508 292 -26 39 -144 252 -263 474
-185 345 -215 405 -204 419 12 15 1434 1538 1532 1640 l40 42 -639 0 -640 -1
-590 -669 c-324 -368 -591 -665 -593 -661 -1 4 38 296 88 649 49 353 90 651
90 662 0 20 -6 20 -534 20 l-534 0 -6 -32z"/>
</g>
</svg>
